<svg xmlns="http://www.w3.org/2000/svg" xmlns:xlink="http://www.w3.org/1999/xlink" viewBox="0 0 73 73"><defs><style>.cls-1{fill:url(#Degradado_sin_nombre_31);}</style><linearGradient id="Degradado_sin_nombre_31" y1="36.5" x2="73" y2="36.5" gradientUnits="userSpaceOnUse"><stop offset="0" stop-color="#be272d"/><stop offset="1" stop-color="#8e333f"/></linearGradient></defs><title>papps</title><g id="Capa_2" data-name="Capa 2"><g id="Capa_1-2" data-name="Capa 1"><path class="cls-1" d="M0,36.5A36.65,36.65,0,0,0,18.12,68a2.68,2.68,0,0,0,3-.33,2.46,2.46,0,0,0,.7-2.14V34.85s0,0,0-.07,0,0,0-.05A14.28,14.28,0,1,1,36.18,49a2.5,2.5,0,0,0-2.44,1.81,2.46,2.46,0,0,0,2.37,3.09A19.18,19.18,0,1,0,16.93,34.73s0,0,0,.07,0,0,0,.05V61.31A31.59,31.59,0,1,1,36.58,68.1,2.45,2.45,0,1,0,36.5,73,36.5,36.5,0,1,0,0,36.5"/></g></g></svg>